M48
; DRILL file {KiCad 9.0.6} date 2026-06-15T13:18:10+0530
; FORMAT={-:-/ absolute / metric / decimal}
; #@! TF.CreationDate,2026-06-15T13:18:10+05:30
; #@! TF.GenerationSoftware,Kicad,Pcbnew,9.0.6
; #@! TF.FileFunction,Plated,1,2,PTH
FMAT,2
METRIC
; #@! TA.AperFunction,Plated,PTH,ComponentDrill
T1C0.889
; #@! TA.AperFunction,Plated,PTH,ComponentDrill
T2C1.500
%
G90
G05
T1
X141.88Y-48.148
X141.88Y-50.688
X141.88Y-53.228
X141.88Y-55.768
X141.88Y-58.308
X141.88Y-60.848
X141.88Y-63.389
X157.12Y-48.148
X157.12Y-50.688
X157.12Y-53.228
X157.12Y-55.768
X157.12Y-58.308
X157.12Y-60.848
X157.12Y-63.389
T2
X136.684Y-76.041
X136.684Y-95.091
X136.684Y-114.141
X143.034Y-73.501
X143.034Y-92.551
X143.034Y-111.601
X155.734Y-76.041
X155.734Y-95.091
X162.084Y-73.501
X162.084Y-92.551
M30
